<svg xmlns="http://www.w3.org/2000/svg" viewBox="-205 207 261.1109 68.1664">
  <switch transform="translate(-17.7048 -9.5168)">
    <g fill="#385672">
      <path d="M-147.4183 219.2649c-6.549 0-11.8906 5.3396-11.8906 11.8886 0 3.1234 1.2103 6.0463 3.3262 8.1621l-12.1914 15.416c-1.209-.6045-2.6207-1.0077-4.0313-1.0077-4.8362 0-8.7656 3.9294-8.7656 8.7656s3.9294 8.7656 8.7656 8.7656c4.8363 0 8.7656-3.9294 8.7656-8.7656 0-2.2166-.8054-4.132-2.1152-5.7442l12.1914-15.414c1.7128 1.0075 3.8295 1.6113 5.9453 1.6113 2.1159 0 4.131-.605 5.8438-1.5117l12.1914 15.416c-1.3098 1.5113-2.0156 3.5267-2.0156 5.6426 0 4.8362 3.9294 8.7656 8.7656 8.7656s8.7656-3.9294 8.7656-8.7656c.1008-4.8362-3.9294-8.7656-8.7656-8.7656-1.5113 0-2.9218.4032-4.1309 1.0078l-12.0918-15.3145c2.1159-2.1158 3.3262-5.0395 3.3262-8.2637 0-6.549-5.3396-11.8886-11.8887-11.8886z"/>
      <path d="M-149.0315 245.8645v3.3242h3.3261v-3.3242zm-.0997 6.1465v3.3242h3.3243v-3.3242zm0 6.1464v3.3243h3.3243v-3.3243zm1.7129 6.2461c-4.8362 0-8.7656 3.9294-8.7656 8.7657 0 4.8362 3.9294 8.7656 8.7656 8.7656s8.7657-3.9294 8.7657-8.7656c0-4.8363-3.9295-8.7657-8.7657-8.7657z"/>
      <path d="M-105.7488 262.24h2.5V248.1c0-3.2 2.88-4.7 6.16-4.7 3.18 0 5.22 1.78 5.22 5.54v13.3h2.48v-13.46c0-5.24-3.24-7.58-7.24-7.58-3.32 0-5.7 1.54-6.74 3.4v-3.04h-2.38zm30.6.4c6.08 0 9.1-4.3 9.1-10.66 0-7.18-3.62-10.82-9.1-10.82-6.1 0-9.18 4.32-9.18 10.82 0 7.1 3.64 10.66 9.18 10.66zm0-2.1c-4.6 0-6.66-3.58-6.66-8.62 0-5.7 2.54-8.64 6.66-8.64 4.54 0 6.58 3.58 6.58 8.64 0 5.66-2.52 8.62-6.58 8.62zm21.88 2.1c5.28 0 6.82-3.4 7.22-4.64l.24 4.24h2.04v-29.72h-2.52v12.58c-.5-1.1-2.6-3.94-7.1-3.94-5.76 0-8.56 4.24-8.56 10.66 0 7.24 3.4 10.82 8.68 10.82zm.32-2.08c-4.3 0-6.42-3.46-6.42-8.96 0-5.72 2.64-8.32 6.52-8.32 4.78 0 6.48 3.16 6.56 8.32 0 6.28-1.78 8.96-6.66 8.96zm17.3798-8.08h15.34v-1.22c0-6.32-3.18-10.1-8.74-10.1-5.84 0-9.18 4.22-9.18 10.94 0 6.68 3.84 10.54 9.44 10.54 3.86 0 7.5-2.04 8.28-6.14h-2.46c-.52 2.54-2.84 4.04-5.84 4.04-4.72 0-6.84-3.7-6.84-8.06zm.04-1.94c-.04-3.52 1.98-7.3 6.54-7.3 4.26 0 6.28 3.16 6.28 7.3zm20.92 18.14h2.52v-10.54c.74 1.66 2.58 4.5 6.88 4.5 5.74 0 8.76-4.22 8.76-11.08 0-7.08-3.5-10.4-8.62-10.4-4.34 0-6.26 2.78-7 4.36l-.08-3.96h-2.46zm9.1-8.14c-4.32 0-6.62-3.8-6.62-8.84 0-5.08 2.3-8.42 6.62-8.42 4.38 0 6.54 3.32 6.54 8.42 0 6.04-2.64 8.84-6.54 8.84zm19.74 2.1c3 0 5.78-1.12 7.5-4.46l.16 4.06h2.18v-14.36c0-4.48-2.84-6.72-7.68-6.72-4.92 0-7.64 2.3-7.86 6.06h2.36c.48-2.76 2.62-4 5.38-4.02 3.66 0 5.38 1.9 5.38 4.78v1.82l-4.3.14c-6.96.2-9.84 2.26-9.84 6.88 0 3.64 2.66 5.82 6.72 5.82zm.62-2c-2.9 0-4.86-1.5-4.86-4.04 0-3.36 2.26-4.74 8.06-4.84l3.6-.08v3.84c0 2.56-3.64 5.12-6.8 5.12zm24.06-17.14v-1.94h-4.7v-5.9h-1.9l-.56 5.9h-3.4v1.94h3.36v13.94c0 3.32.98 4.84 4.62 4.84 1.22 0 2.24-.08 2.76-.26v-1.84h-1.98c-2.32 0-2.9-.2-2.9-2.8V243.5zm5.5399 18.74h2.5V248.1c0-3.2 2.88-4.7 6.16-4.7 3.16 0 5.2 1.62 5.2 4.42v14.42h2.5v-15.08c0-3.58-3.14-5.94-7.22-5.94-3.34 0-5.68 1.56-6.74 3.4v-12.1h-2.4z" aria-label="nodepath" font-family="Public Sans" font-size="40" font-weight="200" letter-spacing="0" style="line-height:1.25;-inkscape-font-specification:'Public Sans, Ultra-Light';font-variant-ligatures:normal;font-variant-caps:normal;font-variant-numeric:normal;font-feature-settings:normal;text-align:start" word-spacing="0"/>
    </g>
  </switch>
</svg>
