<?xml version="1.0" standalone="no"?>
<!DOCTYPE svg PUBLIC "-//W3C//DTD SVG 20010904//EN"
 "http://www.w3.org/TR/2001/REC-SVG-20010904/DTD/svg10.dtd">
<svg version="1.0" xmlns="http://www.w3.org/2000/svg"
 width="700.000000pt" height="700.000000pt" viewBox="0 0 700.000000 700.000000"
 preserveAspectRatio="xMidYMid meet">
<metadata>
Created by potrace 1.14, written by Peter Selinger 2001-2017
</metadata>
<g transform="translate(0.000000,700.000000) scale(0.100000,-0.100000)"
fill="#000000" stroke="none">
<path d="M3410 6422 c-19 -1 -69 -9 -112 -17 -450 -88 -794 -427 -886 -876
-16 -73 -19 -126 -17 -239 3 -164 29 -285 87 -414 40 -88 124 -222 178 -280
l40 -43 -146 -184 c-80 -101 -173 -220 -208 -264 -34 -44 -69 -89 -78 -100
-15 -18 -47 -58 -140 -176 -422 -535 -543 -686 -553 -698 -11 -12 -23 -10 -78
12 -100 40 -184 59 -282 62 -88 4 -219 -13 -280 -36 -137 -51 -232 -110 -323
-199 -151 -150 -236 -348 -241 -563 -2 -74 3 -118 23 -223 3 -12 18 -57 36
-100 103 -257 334 -446 610 -498 75 -14 240 -15 295 -1 193 47 309 109 429
229 52 52 156 193 156 211 0 3 9 26 21 51 32 72 59 192 62 279 7 184 -46 361
-155 517 l-40 56 118 149 c65 81 149 188 188 238 39 49 76 97 83 105 7 8 60
76 119 150 59 74 119 151 135 170 15 19 94 118 174 220 80 102 151 192 158
200 7 8 45 57 86 108 40 51 79 91 85 88 6 -3 52 -23 103 -45 309 -136 642
-125 958 30 l30 15 65 -82 c36 -45 77 -96 91 -115 22 -28 174 -220 301 -380
15 -19 100 -126 188 -239 165 -209 235 -298 280 -354 14 -17 68 -84 119 -149
l94 -118 -21 -27 c-43 -54 -103 -169 -127 -245 -78 -243 -38 -514 108 -727 40
-58 141 -158 203 -201 142 -98 307 -148 479 -143 55 1 111 5 125 8 14 3 48 11
75 17 59 13 193 75 252 115 77 54 167 146 221 229 87 133 130 282 130 452 0
62 -6 139 -14 174 -115 494 -643 766 -1115 574 -35 -14 -66 -25 -70 -25 -4 0
-66 75 -138 168 -72 92 -142 181 -155 197 -14 17 -46 58 -73 91 -26 34 -61 79
-78 100 -16 21 -52 65 -78 98 -26 34 -58 75 -72 91 -13 17 -68 86 -122 155
-53 69 -102 130 -108 137 -5 6 -21 26 -35 44 -14 18 -80 102 -147 187 l-122
154 48 57 c285 333 341 818 139 1216 -128 254 -364 460 -628 549 -41 14 -90
28 -109 31 -19 3 -37 8 -40 10 -18 10 -229 23 -301 17z"/>
<path d="M3378 3942 l-28 -3 0 -155 0 -154 155 0 155 0 0 158 0 157 -127 0
c-71 0 -140 -1 -155 -3z"/>
<path d="M3342 3213 l3 -156 140 1 c77 0 146 1 153 1 9 1 12 39 12 155 l0 155
-155 0 -156 0 3 -156z"/>
<path d="M3342 2640 l3 -155 153 0 152 0 -2 155 -3 155 -153 0 -152 0 2 -155z"/>
<path d="M3353 2200 c-178 -32 -354 -137 -483 -287 -61 -70 -142 -232 -165
-328 -24 -99 -26 -261 -4 -360 25 -114 92 -263 144 -321 5 -6 28 -33 50 -59
159 -187 439 -293 696 -263 427 49 739 413 724 843 -12 353 -250 655 -595 757
-75 22 -284 32 -367 18z"/>
</g>
</svg>
