<svg xmlns="http://www.w3.org/2000/svg" width="64" height="64" viewBox="0 0 48 48">
  <g fill="#122131">
    <path d="m24.0004 39.5294 14.675 6.5264c.2196.1015.4587.1537.7005.1537.328.0042.6498-.0911.9224-.2734a1.7086 1.7086 0 0 0 .786-1.435V10.3325c0-2.2656-.9-4.4381-2.502-6.0401a8.5418 8.5418 0 0 0-6.0402-2.502H15.458c-2.2656 0-4.4382.9-6.0402 2.502a8.5418 8.5418 0 0 0-2.502 6.0401v34.1686a1.7082 1.7082 0 0 0 .7821 1.432 1.709 1.709 0 0 0 1.6269.1228zM13.8357 18.14a1.706 1.706 0 0 1 .6205-.8527 1.7064 1.7064 0 0 1 1.0026-.3264h5.279l1.6401-5.0227a1.7082 1.7082 0 0 1 2.3163-1.0281c.4412.196.7791.5693.9297 1.028l1.6402 5.0228h5.279a1.7066 1.7066 0 0 1 1.0026.3264c.2917.2117.5087.5099.6204.8527a1.728 1.728 0 0 1-.6151 1.9132l-4.271 3.0924 1.623 5.0399a1.708 1.708 0 0 1-1.2776 2.1836 1.7083 1.7083 0 0 1-1.3533-.2872l-4.2711-3.0923-4.271 3.0923a1.7083 1.7083 0 0 1-2.631-1.8964l1.623-5.0399-4.271-3.0924a1.7325 1.7325 0 0 1-.6144-.858 1.7282 1.7282 0 0 1-.0007-1.0552z"/>
    <path d="m22.3623 23.03-.3913 1.2042 1.025-.7448a1.7094 1.7094 0 0 1 1.0045-.3264c.3608 0 .7128.1144 1.0045.3264l1.025.7448-.3912-1.1959v.0004a1.7106 1.7106 0 0 1 0-1.056 1.707 1.707 0 0 1 .6204-.8541l1.0251-.7467h-1.2695a1.7072 1.7072 0 0 1-1.6265-1.1787l-.3878-1.2181-.3913 1.2097a1.7079 1.7079 0 0 1-.6215.8534 1.7076 1.7076 0 0 1-1.0049.3253h-1.2695l1.025.7467a1.7076 1.7076 0 0 1 .624 1.9097z"/>
  </g>
</svg>
