<svg xmlns="http://www.w3.org/2000/svg" data-name="Layer 1" width="228.7887" height="399.7726">
  <path d="M149.0268 5.1895c61.8725 6.8888 100.9504 88.5733 67.488 141.0703s-124.008 51.5577-156.374-1.6223S68.8526-3.737 149.0268 5.1895Z" fill="#dee9ef"/>
  <path d="M85.4125 363.2715c-24.0563.5962-23.994 35.8397 0 36.501 24.0575-.5962 23.995-35.8394 0-36.501ZM183.1773 71.1311C171.0645 25.1438 128.2609-6.7375 80.3342 1.2187c-26.497 3.8227-49.0139 22.9246-63.6899 44.5166C3.1168 66.0048-1.6997 90.8217.518 114.8928c3.285 37.7236 14.4944 74.3776 30.809 108.4537 12.6352 25.0087 27.8749 48.5964 42.123 72.7143-.304.5455-.5925 1.0997-.8977 1.6447-5.8314 11.0551-11.3142 22.2905-17.2146 33.3086 1.2297-1.3585 2.4829-2.7007 3.6748-4.0954 36.7072-43.5333 73.3576-87.5214 102.4555-136.656 20.4116-35.3786 32.1446-78.7548 21.7094-119.1316Zm-38.358 70.049c-7.7562 31.3656-14.4465 42.113-28.737 72.0801-13.2624 27.2049-26.8166 54.2504-41.497 80.7193-10.5022-30.0983-23.3814-59.4171-31.3515-90.3168-10.9577-43.0393-17.3015-96.1276-5.701-123.0342C49.504 58.3867 53.2312 57.8409 65.48 48.1099c13.4284-7.9264 6.0943-5.1934 21.4453-8.8857a56.4828 56.4828 0 0 1 7.265-.4058c1.1852.1044 1.9004.1596 2.3827.1905a76.4637 76.4637 0 0 1 17.6635 5.128c22.8532 12.7733 43.1946 42.269 30.5828 97.0432Z"/>
  <path d="M105.7183 105.457a26.1727 26.1727 0 0 0-10.227-6.226 27.5574 27.5574 0 0 1 6.0576 7.1904c6.9497 11.2075 1.8947 27.2745-11.3732 29.5319-26.1494 3.433-3.1491-34.9049.264-45.9951-9.1532 11.739-22.362 23.5784-22.7096 39.4287.3587 15.2035 15.459 22.322 28.6212 16.5207 16.7701-6.0091 22.0457-27.746 9.367-40.4506Z"/>
</svg>
