<svg xmlns="http://www.w3.org/2000/svg" width="64" height="64" viewBox="0 0 48 48">
  <g fill="#122131">
    <path d="M40.8605 4.3293h-2.8101v5.6202H9.9493V4.3293H7.1379c-1.5528 0-2.8088 1.2576-2.8088 2.81v36.5314c0 1.5525 1.2561 2.8102 2.8088 2.8102h33.7229c1.5525 0 2.8101-1.2577 2.8101-2.8102V7.1394c0-1.5525-1.2576-2.8101-2.8101-2.8101zM12.7578 18.3798h2.8101v2.81h-2.8101zm0 8.4303h2.8101v2.8101h-2.8101zm2.8101 11.2404h-2.8101v-2.81h2.8101zm19.6724 0H18.3796v-2.81h16.8607zm0-8.4303H18.3796v-2.81h16.8607zm0-8.4303H18.3796v-2.8101h16.8607z"/>
    <path d="M35.2403 4.3293c0-1.5525-1.2577-2.8102-2.8101-2.8102H15.5679c-1.5528 0-2.8088 1.2577-2.8088 2.8102v2.81h22.4808z"/>
  </g>
</svg>
