<svg xmlns="http://www.w3.org/2000/svg" data-name="Layer 1" width="291.2927" height="359.929">
  <path d="M235.0174 153.3221a8.2222 8.2222 0 0 0-4.7476-5.3207c-2.7675-1.1669-5.9608-.7148-8.9127-.8892-6.1053.0578-12.2029.5727-18.295.9508-9.3061.7738-18.42 2.9023-27.6538 4.2069-10.4758 1.4397-38.687 4.7302-56.8337 4.8483-12.1505.5858-24.2897 1.4164-36.4547 1.6519-7.6539.3764-15.3082.6647-22.9202-.4314a98.7467 98.7467 0 0 0 19.8721 4.6507c8.5988 1.4998 17.2056 2.9455 25.872 4.0041 1.6517.2047 3.2833.4153 4.9068.6267-12.7583.5649-25.534.6417-38.2833 1.5044 3.0747.7287 6.1732 1.3608 9.278 1.9504 9.5033 1.6742 18.8824 4.0366 28.4516 5.332 15.2617 1.8458 30.5878 3.46 45.9435 4.2488a277.5471 277.5471 0 0 0 48.0964-1.7877c7.6392-1.2027 15.9931-.9341 22.7605-5.1357 4.4245-2.7316 5.6266-7.952 7.334-12.5396.1492-.3258.284-.6584.4536-.974a8.8497 8.8497 0 0 0 1.1325-6.8967Z" fill="#dee9ef"/>
  <path d="m27.7928 68.811-2.2534 235.8948c-.1477 15.4625 13.4628 29.7607 28.9138 30.3746l153.9469 6.1174a14.7115 14.7115 0 0 0 3.9852-29.013c-29.9865-7.1254-60.5785-14.4988-86.7001-30.858s-47.448-43.602-48.4536-74.4071c-1.6373-50.1595-20.1799-99.6189-49.4388-138.1087Z" fill="#dee9ef"/>
  <path d="M290.4347 64.525c-.1075-11.1892.2102-22.3756.258-33.5639-.1675-6.3764.7323-13.1612-1.7036-19.194-3.182-5.8918-10.9178-5.994-16.7638-7.1315-9.3273-1.1782-12.9497-1.9302-20.5329-2.5258C214.26-1.4374 176.6797.4344 139.1667 1.0006c-28.3484.349-56.9627-.6428-84.933 4.8147-25.7767 5.3578-31.6556 14.4415-36.104 39.637-.572 3.2395-1.0181 6.5018-1.363 9.7728.6609-2.2492 1.35-4.4906 2.0983-6.7124.5712-1.7488 1.2487-3.642 1.9416-5.4859-3.0178 12.0572-6.1004 24.1132-8.0539 36.3967-3.9095 23.3907-5.7225 47.0675-7.0564 70.7271C3.6781 184.8231.8596 219.4672.0513 254.1978c-.2915 20.4654.7257 40.9185 1.3274 61.3701.4697 9.2097.5676 18.4472 1.3665 27.6358.3025 18.5826 21.572 15.4272 34.6427 15.3454 14.1477-.6113 28.2494-2.0876 42.4115-2.4346 11.192-.349 22.3855.2266 33.5795.1687 14.965.0723 29.903-1.0435 44.8618-1.256 17.5697.2007 35.1476-.6747 52.7093-.0798 11.6632.6388 23.2586 2.1419 34.8633 3.4233 6.097.4786 12.2083 1.969 18.332 1.4502 7.0834-.4132 11.0714-7.1403 13.3353-13.131 3.8569-8.765 4.048-18.5841 4.6885-27.9987.7524-14.8021.2872-29.6464 1.4346-44.432 1.2855-19.3263 3.9958-38.5221 5.5077-57.8288 1.5493-20.7207 1.8175-41.5108 2.0696-62.2801.4938-29.8785-.814-59.7463-.7463-89.6254Zm-9.9593 146.7702c-1.467 21.1486-4.6179 42.141-6.0662 63.2911-1.4534 19.0403-.1957 44.6322-2.525 59.351-1.6263 11.1665-6.6561 17.666-8.5221 17.0169-6.2443.1814-12.4437-1.2433-18.6511-1.8106-14.4088-1.6497-28.8421-3.5893-43.3695-3.5772q-23.7157.2236-47.432.3487c-11.135.3313-22.2624.9314-33.4014 1.1248-15.5432.2922-31.09-.706-46.6257.0661-18.9922.4638-54.7153 5.505-60.8226-.3669-.0581-.0934-.1184-.1856-.17-.283a22.169 22.169 0 0 1-.6884-3.5642c-.219-4.2533-1.0327-21.7644-1.2286-30.7621-.4065-19.9903-1.3335-39.9856-.7659-59.9818.9522-36.3015 3.525-72.5302 5.3402-108.7925.8774-20.5712 1.0138-41.1707 2.2205-61.7284.6729-13.587 2.4-27.0847 3.806-40.608.9416-2.4211 1.8515-4.6177 2.5036-6.0982a44.0046 44.0046 0 0 1 7.4957-12.1714c6.8022-6.2192 17.3075-7.0531 24.0031-7.9849 20.0117-1.6589 40.1128-2.1682 60.186-2.456 40.5891-.1295 81.161-3.5274 121.7393-1.2627 9.2365.41 18.455 1.1765 27.6416 2.2129 7.1645 1.0255 8.6131.6438 15.5982 2.7664.0288.0162.0597.028.088.0446a10.3748 10.3748 0 0 1 .4996 1.9734l-.021-.1563c.3594 3.2681.4353 6.5595.5162 9.844-.1196 28.42-.0209 56.839.5343 85.2566.4828 32.7697.0367 65.5872-1.8828 98.3076Z"/>
  <path d="M102.2827 71.283c-2.437-5.4192-7.1723-10.0663-12.9605-11.698a29.5839 29.5839 0 0 0-6.4331-.6583 23.3573 23.3573 0 0 1 6.9818 2.6902 19.44 19.44 0 0 1 8.433 13.0601c.554 6.9565-1.1371 12.6326-5.4474 18.6256-6.0752 9.2107-17.0476 15.0926-23.9435 13.7543-8.5547-1.6378-13.851-10.7853-14.469-20.7993-.6676-7.555.7083-14.9938 5.2046-21.5877 3.9312-5.1862 9.8924-8.0982 15.1905-11.642-8.6284 3.0631-18.206 6.3764-22.6862 15.0512-5.3525 9.6567-7.0472 21.8705-3.2925 32.361 5.3374 14.6398 19.9137 21.3547 34.0409 13.9537 10.3213-5.0698 17.714-15.6674 20.4793-26.6726.9746-5.436 1.1633-11.2871-1.098-16.4382ZM204.4593 59.928a345.8336 345.8336 0 0 0-59.2408 3.484c16.9336 2.2364 34.055 4.1023 51.1557 3.39 12.739-.651 25.2182-3.43 37.8084-5.2643-6.7716-1.6092-20.5538-1.3997-29.7233-1.6097ZM238.058 88.5157c-20.7646-4.5459-42.0819-1.9893-62.9184.6402-10.3193 1.1815-20.719 1.259-31.0748 1.9463 12.2272 2.5551 24.6127 4.8475 37.157 4.4648 18.0191-.3663 33.5864-4.2043 48.503-5.4788 3.9125-.3694 7.8357-.6137 11.7603-.8115-1.1384-.267-2.281-.5253-3.4271-.761ZM208.6558 112.7176c-23.5223-2.1526-46.9177 2.4154-70.3598 3.7673a205.0463 205.0463 0 0 0 36.6819 3.295c17.8622-.1773 35.6045-2.561 53.3966-3.8827.7326-.0517 1.4665-.0987 2.1983-.1487a159.8572 159.8572 0 0 0-21.917-3.031ZM223.2585 165.041c-25.0528-2.438-50.2441-1.2587-75.3555-.6593-33.2014.4944-66.3975 1.5436-99.6004 1.715 30.5426 6.5249 61.8603 10.0156 93.1094 9.3523 27.5051-1.1398 54.6467-6.1678 82.0388-8.5967 2.9282-.3027 5.8618-.5604 8.794-.8096q-4.481-.6033-8.9863-1.0016ZM213.742 207.8312c-21.832-2.9179-43.9225-3.6194-65.9273-3.9279-30.9653.0142-61.677 4.7367-92.5895 6.0363 51.8731 8.2594 104.4564 1.8566 156.4719-1.6246 1.4763-.1776 5.8862-.046 2.045-.4838ZM224.5335 269.2956c-10.4086-2.4831-20.8374-4.9967-31.4547-6.4195-10.6433-1.4324-21.3809-2.0095-32.0757-2.938-15.28-1.1234-30.5881-2.1927-45.9182-2.0598-19.5694.4794-39.131 1.2456-58.706.5192 18.907 4.9765 35.5878 7.3817 54.5002 8.9434 13.3046 1.1255 26.5738 2.8343 39.9332 3.1658 13.7928.4747 27.5823-.107 41.3655-.5705 10.0653-.2106 20.1339-.0053 30.2005-.1536 1.5193-.1255 6.0993.2988 2.1552-.487Z"/>
  <path d="M86.1105 79.8138c-.3549-1.1497-.7743-2.2786-1.2182-3.3968a55.5977 55.5977 0 0 1-.4138 5.8349c-1.0318 5.3511-2.8645 9.5225-7.9063 11.6742-2.9625 1.0146-3.468 1.2654-6.655.3304-.9376-.5252-2.0647-2.5514-2.5338-3.5981-1.8678-5.559-2.0898-10.7208-1.7544-16.6877.3902-2.7292.1806-6.6949 3.2456-7.8275-2.1335-.006-3.419 1.7295-4.3179 3.4634a36.029 36.029 0 0 0-3.3984 9.8152c-2.9826 12.063 1.319 27.3728 16.5848 21.5858 8.1896-3.281 11.1827-13.2605 8.3674-21.1938Z" fill="#3d6a93"/>
</svg>
