<svg xmlns="http://www.w3.org/2000/svg" data-name="Layer 1" width="806.6318" height="698.7658">
  <path d="M554.4622 215.9893a79.8278 79.8278 0 1 1-79.686-79.9692 79.6214 79.6214 0 0 1 79.686 79.9692Z" fill="#f2f2f2"/>
  <path d="m687.3209 262.5226 11.2242-21.432c-10.0653-12.1543-43.0885-26.8955-43.0885-26.8955l-44.695-40.6814a10.6812 10.6812 0 1 0-13.1184 13.0207l48.2856 57.9113Z" fill="#9e616a"/>
  <path d="m681.8838 261.044 15.8487 5.0462a54.3932 54.3932 0 0 0 35.295-.7858 19.6414 19.6414 0 0 0 12.6852-16.3987 19.595 19.595 0 0 0-16.312-21.2055c-14.8629-2.4425-34.0137-3.647-40.846 4.4833l-.0691.0823Z" fill="#3f3d56"/>
  <circle cx="567.8861" cy="246.8276" r="79.8278" fill="#fff"/>
  <path d="M535.307 215.6033a75.0036 75.0036 0 0 1-5.3513 17.0798c-14.0817 29.7897 26.0204 20.0798 40.3515 20.0798 15.669 0 30.661 8.2394 28.3712-28.3713-.978-15.6384-12.7022-28.3712-28.3712-28.3712-13.3839 0-32.2015 5.9489-35.0001 19.583Z" fill="#2f2e41"/>
  <circle cx="567.9596" cy="229.701" r="23.0548" fill="#ffb6b6"/>
  <path d="M552.303 206.1998a26.4086 26.4086 0 0 1 40.1504 23.0477c-11.7477 2.9495-24.0893 5.2066-36.6173.7055l-2.9586-7.2409-1.7443 7.2462c-3.8151 1.5595-7.6403 2.8789-11.4653-.015a26.9646 26.9646 0 0 1 12.635-23.7435Z" fill="#2f2e41"/>
  <path d="M629.956 299.908a79.7999 79.7999 0 0 1-111.6843 8.0715l6.847-19.1054a20.5457 20.5457 0 0 1 17.4518-11.984l4.3559-.2675 10.3866-8.958s27.9862-.9993 27.571-1.4778l16.9522 10.1966-.0141-.0704 6.664.4082a20.5367 20.5367 0 0 1 17.4518 11.984Z" fill="#3d6a93"/>
  <path d="m560.8824 628.845-1.9835-27.5885A89.2442 89.2442 0 0 0 517 591.8606c20.4317 15.793 18.7951 47.3576 32.9451 68.9596a53.6806 53.6806 0 0 0 40.0277 23.7217l17.004 9.7825a89.9517 89.9517 0 0 0-20.9442-72.346 86.888 86.888 0 0 0-16.3679-14.3953c-3.7167 10.671-8.7823 21.2619-8.7823 21.2619ZM43.8824 139.845l-1.9835-27.5885A89.2442 89.2442 0 0 0 0 102.8606c20.4317 15.793 18.7951 47.3576 32.9451 68.9596a53.6806 53.6806 0 0 0 40.0277 23.7217l17.004 9.7825a89.9517 89.9517 0 0 0-20.9442-72.346 86.888 86.888 0 0 0-16.3678-14.3953c-3.7168 10.671-8.7824 21.2619-8.7824 21.2619Z" fill="#f2f2f2"/>
  <path fill="#9e616a" d="m635.268 684.997-13.264-.001-6.31-51.159h19.576l-.002 51.16z"/>
  <path d="m638.6503 697.854-42.7675-.0015v-.541a16.6472 16.6472 0 0 1 16.6463-16.646h.001l7.8121-5.9266 14.5756 5.9275 3.7333.0002Z" fill="#2f2e41"/>
  <path fill="#9e616a" d="m752.165 684.997-13.263-.001-6.31-51.159h19.576l-.003 51.16z"/>
  <path d="m755.548 697.854-42.7675-.0015v-.541a16.6472 16.6472 0 0 1 16.6463-16.646h.001l7.812-5.9266 14.5756 5.9275 3.7334.0002ZM731.992 411.1857l11.1559 105.9808s14.851 106.1169 12.062 120.759.6972 16.7338.6972 16.7338l-25.448-1.8124s.6971-9.0642-3.4863-13.2476-2.0917-16.7338-2.0917-16.7338l-49.3655-172.6342-29.9814 90.6414s-4.8807 99.7056-5.578 101.1-2.789 20.22-2.789 20.22h-25.798s3.4863-11.1558-1.3944-14.642-9.0642-.6973-4.8807-6.9725 5.5779-13.9448 4.1834-17.431-1.3945-17.431-1.3945-17.431 2.0918-188.2552 13.9449-194.5304 110.1642 0 110.1642 0Z" fill="#2f2e41"/>
  <circle cx="679.1604" cy="169.1632" r="27.4387" fill="#9e616a"/>
  <path d="M741.475 422.7368c-53.1387 10.9738-123.5581-7.8929-123.5581-7.8929l18.7851-81.4297-6.6785-85.2175c-.8156-10.4212 5.12-20.1897 14.3539-23.6513l12.75-4.7756 10.5389-15.088 30.1033.9877 12.0342 15.84 9.4968 5.0385 20.5885 10.9196.0906.0452v.0453l-6.461 62.6718-3.8966 37.7878s11.8347 42.4999 9.4061 48.1364c-2.4285 5.6274-.317 2.9089.2719 5.9173.589 3.0086 2.3923 3.1989 2.6641 9.1254.281 5.9174-.4892 21.54-.4892 21.54Z" fill="#3f3d56"/>
  <path d="M805.7124 698.7658H395.2412a.9194.9194 0 0 1 0-1.8387h410.4712a.9193.9193 0 0 1 0 1.8387Z" fill="#ccc"/>
  <path d="M677.8255 195.2836a84.5146 84.5146 0 0 0 14.3461-1.3755c4.6868-1.0797 15.0274-9.0757 17.8457-13.7994 2.0938-3.5097 3.3505-8.9383 4.0363-12.8741a37.7791 37.7791 0 0 0-7.3794-29.8114 11.9356 11.9356 0 0 0-4.9255-3.9889 5.894 5.894 0 0 0-.5344-.1648 14.7265 14.7265 0 0 1-7.4403-4.3424 12.1473 12.1473 0 0 0-1.2497-1.2215 18.1395 18.1395 0 0 0-7.6638-3.6035c-4.5285-1.0876-11.0064.2752-19.2533 4.054-4.1432 1.8986-8.7417 1.369-12.2862.6954a1.1537 1.1537 0 0 0-1.0762.4 8.1444 8.1444 0 0 1-5.4765 2.3486c-1.2584.0879-2.5351 1.8664-4.074 4.1824-.3492.5257-.7567 1.1393-1.0524 1.5137l-.0591-.7031-.6923.804a9.8828 9.8828 0 0 0 4.876 15.9806 19.2718 19.2718 0 0 0 3.891.5175c.7948.0508 1.6171.1035 2.4068.2196a14.9 14.9 0 0 1 11.3183 9.38 3.8967 3.8967 0 0 0 5.9282 1.7395 6.4381 6.4381 0 0 1 5.837-1.2193 4.2738 4.2738 0 0 1 1.9438 2.0933 5.5696 5.5696 0 0 0 2.1764 2.4104c3.2353 1.5637 3.6436 8.8504 2.654 14.9592-.9541 5.8882-3.0297 10.1837-5.0474 10.4454-1.5532.2014-1.7285.3166-1.8341.595l-.0944.249.1809.2262a6.3636 6.3636 0 0 0 2.6985.29Z" fill="#2f2e41"/>
  <path d="M567.8863 327.6553a80.8276 80.8276 0 1 1 80.8276-80.8277 80.9195 80.9195 0 0 1-80.8276 80.8277Zm0-159.6553a78.8276 78.8276 0 1 0 78.8276 78.8276A78.9172 78.9172 0 0 0 567.8863 168Z" fill="#3f3d56"/>
  <circle cx="288.886" cy="80.8276" r="79.8278" fill="#fff"/>
  <circle cx="292.5806" cy="62.9401" r="26.0304" fill="#ffb8b8"/>
  <path data-name="bf427902-b9bf-4946-b5d7-5c1c7e04535e" d="M315.4995 45.7439s6.7774-12.9564-8.133-14.1342c0 0-12.7114-11.5309-25.6678-2.108 0 0-7.067 0-10.9316 7.9972 0 0-5.5583-2.108-6.7797 3.5336 0 0-4.0672 11.7785 0 22.3792s5.418 11.7785 5.418 11.7785-2.8536-13.1549 13.4138-14.3327 31.1912-11.3687 32.5469 1.5876 2.846 7.1035 2.846 7.1035 12.8762-18.5043-2.7126-23.8047Z" fill="#2f2e41"/>
  <path d="M348.9199 133.908a79.7999 79.7999 0 0 1-111.6843 8.0715l6.847-19.1054a20.5457 20.5457 0 0 1 17.4518-11.984l4.3559-.2675 10.3866-8.958s27.9862-.9993 27.571-1.4778l16.9522 10.1966-.0141-.0704 6.664.4082a20.5368 20.5368 0 0 1 17.4518 11.984Z" fill="#3d6a93"/>
  <path d="M288.8863 161.6553a80.8276 80.8276 0 1 1 80.8276-80.8277 80.9195 80.9195 0 0 1-80.8276 80.8277Zm0-159.6553a78.8276 78.8276 0 1 0 78.8276 78.8276A78.9172 78.9172 0 0 0 288.8863 2Z" fill="#3f3d56"/>
  <circle cx="102.5628" cy="206.8276" r="79.8278" fill="#fff"/>
  <path d="M65.5634 180.8596c3.3008-10.5196 10.807-20.168 21.188-23.7241 10.3815-3.5563 25.5828 1.861 33.3874 9.6392 14.276 14.2279 17.76 63.1058 7.9517 78.5518-1.9509-.1032-8.6827-.1796-10.6572-.2536l-2.7933-9.3097v9.218q-4.7186-.1459-9.511-.2014a41.3925 41.3925 0 0 1-40.8667-40.3712c-.2556-10.2454.0003-19.4034 1.301-23.549Z" fill="#2f2e41"/>
  <circle cx="101.3789" cy="192.974" r="22.7504" fill="#9e616a"/>
  <path d="m81.7446 172.9937 26.1948-13.1164a32.9243 32.9243 0 0 1 19.2837 27.2782l.653 7.8208-10.9692-2.7923-1.2017-10.0004-1.8628 9.2204-5.0621-1.288.0481-15.5256-5.0653 15.5145-18.0799-4.1539Z" fill="#2f2e41"/>
  <path d="M161.8003 259.6543a79.7999 79.7999 0 0 1-111.6842 8.0715l6.847-19.1055a20.5457 20.5457 0 0 1 17.4517-11.984l4.356-.2674 10.3865-8.9581s27.9862-.9993 27.571-1.4778l16.9522 10.1966-.014-.0704 6.664.4082a20.5368 20.5368 0 0 1 17.4517 11.984Z" fill="#3d6a93"/>
  <path d="M102.563 287.6552a80.8276 80.8276 0 1 1 80.8277-80.8276 80.9195 80.9195 0 0 1-80.8276 80.8276Zm0-159.6553a78.8276 78.8276 0 1 0 78.8277 78.8277 78.9172 78.9172 0 0 0-78.8276-78.8277Z" fill="#3f3d56"/>
  <path d="m641.6128 288.2411-12.0854-20.9585c-15.6552 1.9887-45.7925 21.978-45.7925 21.978l-58.2943 15.9501a10.6812 10.6812 0 1 0 3.968 18.0524l74.767-9.7526Z" fill="#9e616a"/>
  <path d="m637.4516 292.0403 27.0572-22.663 3.9365-18.242a19.6414 19.6414 0 0 0-7.0524-19.4961 19.595 19.595 0 0 0-26.6444 2.4153c-10.024 11.2422-21.2997 26.7684-18.094 36.893l.0325.1025Z" fill="#3f3d56"/>
  <path d="M222.7463 370.7699h-101.665a10.2884 10.2884 0 0 1-10.2768-10.2768v-62.6162a10.2884 10.2884 0 0 1 10.2767-10.2767h101.6651a10.2884 10.2884 0 0 1 10.2768 10.2767v62.6162a10.2884 10.2884 0 0 1-10.2768 10.2768Z" fill="#e6e6e6"/>
  <path d="M182.3532 362.7045h-54.1255a9.6356 9.6356 0 0 1-9.625-9.6246v-47.79a9.6356 9.6356 0 0 1 9.625-9.6245h87.3725a9.6352 9.6352 0 0 1 9.6245 9.6245v14.5435a42.9198 42.9198 0 0 1-42.8715 42.871Z" fill="#fff"/>
  <path d="M206.884 321.8341h-69.9405a2.281 2.281 0 1 1 0-4.562h69.9405a2.281 2.281 0 1 1 0 4.562ZM147.884 330.8475h-10.9405a2.2811 2.2811 0 0 1 0-4.5622h10.9405a2.2811 2.2811 0 1 1 0 4.5622ZM167.261 339.8608h-30.3175a2.2811 2.2811 0 0 1 0-4.5622h30.3175a2.2811 2.2811 0 0 1 0 4.5622Z" fill="#3d6a93"/>
  <circle cx="107.2567" cy="286.3531" r="21.5062" fill="#3f3d56"/>
  <path d="M486.7463 86.7699h-101.665a10.2884 10.2884 0 0 1-10.2768-10.2768V13.8769a10.2884 10.2884 0 0 1 10.2767-10.2767h101.6651a10.2884 10.2884 0 0 1 10.2768 10.2767v62.6162a10.2884 10.2884 0 0 1-10.2768 10.2768Z" fill="#e6e6e6"/>
  <path d="M446.3532 78.7045h-54.1255a9.6356 9.6356 0 0 1-9.625-9.6246V21.29a9.6356 9.6356 0 0 1 9.625-9.6245h87.3725a9.6352 9.6352 0 0 1 9.6245 9.6245v14.5435a42.9198 42.9198 0 0 1-42.8715 42.871Z" fill="#fff"/>
  <path d="M470.884 37.8341h-69.9405a2.281 2.281 0 1 1 0-4.562h69.9405a2.281 2.281 0 1 1 0 4.562ZM411.884 46.8475h-10.9405a2.2811 2.2811 0 1 1 0-4.5622h10.9405a2.2811 2.2811 0 1 1 0 4.5622ZM431.261 55.8608h-30.3175a2.2811 2.2811 0 0 1 0-4.5622h30.3175a2.2811 2.2811 0 0 1 0 4.5622Z" fill="#3d6a93"/>
  <circle cx="371.2567" cy="77.3531" r="21.5062" fill="#3f3d56"/>
</svg>
