<svg xmlns="http://www.w3.org/2000/svg" data-name="Layer 1" width="263.811" height="226.1831">
  <path d="M201.3682 94.333c.5346-15.9535-14.074-28.6427-29.5705-28.3957-14.2253 1.0747-20.2224 4.9192-25.8178 9.9225-11.388 1.3737-22.3356 11.687-27.469 21.6566-7.3088 13.462 2.3134 29.7852 15.985 34.236 14.2524 4.1978 29.9757-.7784 41.4955-10.1949 13.7525-1.5118 24.7014-11.8555 25.3768-27.2245Z" fill="#dee9ef"/>
  <path d="M236.1208 61.7807c-16.5335-25.7465-48.3215-40.7119-78.691-36.0948a86.3888 86.3888 0 0 0-19.2942 6.5077c-8.8142.1274-17.6148.567-25.9815 3.5586-44.8983 13.2819-83.1436 50.936-82.3162 99.9902-1.3588 22.6893 8.1506 44.22 21.3039 62.232 12.7392 18.2499 34.6123 27.594 56.4607 28.1076 24.711.9573 49.2523-4.96 71.8884-14.6128 26.3349-11.1192 50.635-30.1841 64.03-55.7916 12.2453-24.9686 6.506-70.3358-7.4001-93.8969Zm-14.911 78.346c-7.767 18.279-27.0596 35.7304-52.0891 47.1508 2.698-16.5116 1.7436-36.9372-7.8557-48.1014a57.0376 57.0376 0 0 0 4.9053-4.4456c9.9733-9.851 16.3243-23.8488 15.2814-38.0062-.5293-12.9-9.0374-27.171-21.512-29.1417-5.4381-.416-10.8864 1.056-15.9769 2.8504 5.0638-.2266 10.376-.243 15.1969 1.4936 16.1761 9.827 12.3995 32.7692 1.1067 45.7705-5.9685 5.9966-11.866 11.5342-20.1624 13.5114a35.414 35.414 0 0 0-5.4817.8808l-.0315.0009c-2.104-.1782-1.275-.0588-4.5682-1.2063-7.0131-1.6906-18.4986-20.8766-11.224-39.534 2.4444-6.7972 7.0843-13.1216 13.4666-16.6617 4.7277-2.3747 10.1254-2.476 15.2454-3.3722-29.046-6.5858-47.4949 25.336-41.1918 50.8605a36.1522 36.1522 0 0 0 10.8638 18.924c-16.0372 12.9244-23.9468 34.5722-30.2677 53.7143 13.0649-19.328 24.8914-39.076 42.0776-47.2264a32.3372 32.3372 0 0 0 21.0533-1.691 12.4934 12.4934 0 0 1 4.9194 5.3188c4.6849 8.9564 8.5074 23.1561 9.7726 37.9725a148.2613 148.2613 0 0 1-36.4238 10.0018c-20.8246 3.302-40.678-.9476-49.8284-8.6756-16.896-15.0562-28.123-40.4831-28.5709-56.5196-3.5182-28.5572 14.5741-66.4686 51.4789-86.3668 7.2435-4.1413 14.5823-8.3706 22.6289-10.7485 2.4503-.6186 4.9233-1.1341 7.4055-1.607q-1.3073.6113-2.6127 1.2188-1.3594.6657-2.72 1.3292a177.061 177.061 0 0 1 21.4858-5.1347c11.3129-1.9688 21.3528-.2378 31.9364 3.391 21.6924 7.6677 39.1456 26.559 43.2978 43.8585 3.7733 15.4587 3.2453 17.041 2.817 32.9044-1.2992 15.868-.361 14.957-4.4226 27.2865Z"/>
  <circle cx="132.6614" cy="7.5591" r="7.5591"/>
  <circle cx="7.5591" cy="157.9843" r="7.5591"/>
  <circle cx="256.252" cy="192.7612" r="7.5591"/>
</svg>
