<svg xmlns="http://www.w3.org/2000/svg" data-name="Layer 1" width="205.8756" height="383.4398">
  <path d="M201.5309 48.0324c-1.7903-11.2937-2.9637-22.9495-7.506-33.5443-3.5814-7.2954-10.9617-12.037-18.8227-13.5342-8.7566-1.6432-17.7484-.8378-26.554-.0027-12.6595 1.2893-25.252 3.1396-37.8472 4.9343-17.9626 2.883-49.3071 4.28-72.6597 7.2052-2.7919.3382-5.5881.6551-8.3682 1.0762 2.2307.0904 4.4586.238 6.6864.381 19.1994 1.0805 38.3562 3.0398 57.5982 3.239 16.793.299 33.5337-1.3285 50.2696-2.4706 20.6997-1.7366 32.5386-1.8713 36.2586 4.3574 1.9214 2.2173 5.0682 16.8959 6.2332 25.5957a382.8676 382.8676 0 0 1 4.6758 55.7945c.6834 52.064-.9452 104.1155-3.9294 156.0837-2.481 22.2804-3.5172 44.658-3.8537 67.0644-.2597 17.4462-3.4583 34.3578-10.1837 41.9738-1.1703 1.19-1.0392 1.2483-3.5018 2.4473-.4652.1347-1.2308.359-1.932.5143a54.9464 54.9464 0 0 1-7.0027-.154c-38.481-3.337-83.2413-.322-115.3523-6.4673-8.8026-1.6775-17.897-2.3095-21.7783-3.1064-5.853-1.3151-5.5141-.92-8.2086-2.6247a27.6775 27.6775 0 0 1-.664-.6834c-.0507-.0814-.1098-.1572-.1577-.2404-.1092-.4-.2818-1.0243-.421-1.6547.0221.4251-.0014.574-.0479-.2233a7.3057 7.3057 0 0 1-.1616-1.1501 2.5676 2.5676 0 0 1 .1246.5185 79.5367 79.5367 0 0 1-.056-9.4411c1.4896-24.3234 2.182-48.6832 3.4034-73.0202 2.4278-52.8129 5.4671-105.6217 5.5855-158.507-.9468-34.8031-4.4484-69.5042-6.1845-104.2763-4.593 33.2776-6.216 66.853-7.0084 100.4072-1.3837 20.4312-1.5038 40.9102-2.1302 61.3715-.8591 25.8197-2.2794 51.614-3.3848 77.4232-1.3141 25.695-2.3762 51.401-3.447 77.1068C.8188 332.3926.1225 340.3482 0 348.3255c.0083 6.2196.3343 13.125 4.95 17.8126 4.0335 4.3727 10.0264 6.1882 15.7417 7.114 9.5358 1.2256 9.8418 1.3594 17.396 2.3949 14.6739 2.4448 29.4434 4.5373 44.3332 4.9488 23.5807.5428 47.1806.6796 70.7336 2.0876 8.3414.449 17.3264 2.2816 24.9473-2.1573 23.189-15.0808 19.1422-57.018 20.5183-81.4808.396-15.2393 2.2636-30.384 3.4861-45.5663q1.5311-33.4233 2.9174-66.8564c.9111-21.4686.7206-42.9637.7965-64.4464.2938-24.7881-.4988-49.6104-4.2892-74.1438Z"/>
  <path d="M14.4617 353.9932c.0153.0742.0316.1487.0479.2233-.0124-.2399-.0392-.5631-.0848-.8549.0091.1168.0113.2338.0213.3506.0054.1074.0104.1961.0156.281ZM108.9057 36.2705c-14.8646-3.0701-30.0562-2.122-45.1226-2.715 14.309 5.3471 29.7728 5.1368 44.7444 3.4155 1.9512-.2807 3.4032-.2065.3782-.7005ZM128.8881 26.4282c-9.3944.2327-9.3698 13.9959.0004 14.2543 9.3944-.2329 9.37-13.996-.0004-14.2543ZM68.6506 227.997c-8.673-3.435-17.899 1.162-26.2865 3.5201 5.5967-.2231 14.8887-1.2295 18.6088-.7117 7.1472.578 10.5372 4.8508 7.971 10.9372-3.0887 6.5897-11.5028 7.632-17.1679 4.3173-2.3936-1.4483-4.7763-3.8107-4.5995-6.8176.383-1.9279-.4509.3246-.4761 1.0754.064 9.752 13.1745 14.1243 20.8822 9.9498 8.7462-4.1746 10.966-18.0633 1.068-22.2704ZM124.7486 234.5382c-5.0308-6.849-17.5951-3.5685-24.9288-3.021 5.248.6993 8.4686 1.0606 12.6882 1.7283 3.8226.7706 9.6971 1.6984 8.624 6.476-.8883 3.0915-1.6937 5.8275-5.3636 7.9505-3.2634 1.3411-7.8032.8913-10.2944-1.742a7.6334 7.6334 0 0 1-1.152-4.6033 11.7953 11.7953 0 0 0-.465 2.1533c-.6568 8.4514 13.085 11.106 17.8934 5.3124 3.3523-3.6883 5.7355-9.5958 2.9982-14.2542ZM160.0773 235.7889c-7.2406-3.8207-15.7021-.7696-23.1657.8192 8.2896.479 25.043-1.6377 23.4095 10.362a16.378 16.378 0 0 1-2.4895 5.4724c-1.7248 1.7694-3.9649 3.621-6.572 3.5728-3.2702-.2046-5.8287-2.534-8.055-4.6386 3.601 7.2847 9.9368 9.929 16.7735 4.7269 6.3087-4.9304 7.9017-15.9952.0992-20.3147ZM75.68 276.978c-6.1627-4.3717-14.2749-.981-20.952.3583 4.825.4153 10.6124.5531 13.2263 1.1171a10.4263 10.4263 0 0 1 4.0389 1.4316 8.0534 8.0534 0 0 1 2.4906 4.917c.2597 2.5783.5633 6.601-.9936 9.2012a9.489 9.489 0 0 1-6.3267 2.0794 19.8478 19.8478 0 0 1-6.9318-3.2849c1.8862 2.3334 4.0523 4.8474 7.0034 5.7698 3.2166.7623 7.1069.2611 9.6077-2.0247 4.1882-5.4491 4.203-14.868-1.1628-19.5648ZM122.3052 271.0809c-8.1311-3.1342-16.8386.002-24.6672 2.619 7.4716-.3502 15.576-1.59 22.4817 1.8139 3.4752 1.7712 5.0621 4.503 3.394 7.7687-.7005 1.882-3.521 4.2265-4.3245 4.7358a11.3415 11.3415 0 0 1-7.7585 2.6347 8.5912 8.5912 0 0 1-6.388-2.5378 20.1315 20.1315 0 0 1-2.709-3.397 16.2495 16.2495 0 0 0 .7751 2.1667c3.0942 8.4786 13.94 8.84 20.3746 3.9629 8.2827-5.2851 8.6257-16.0387-1.1782-19.7669ZM157.1771 272.1586c-5.9593-2.3308-12.2789.7821-18.0836 2.2685 5.6895.2033 12.2089-1.584 17.1969 1.9075 4.9238 4.0198 5.8127 11.2986 2.9467 16.9278-2.6738 5.5811-7.717 4.5418-11.3797 1.2282a33.2606 33.2606 0 0 1-2.9507-2.6098c.4161.7581.8566 1.502 1.3412 2.2186 4.0411 6.8707 11.581 8.6461 16.5119 1.5902 5.5293-7.4416 3.484-19.9506-5.5827-23.531ZM52.546 317.3372c4.1465.0114 8.2953-.3088 12.4394-.102 1.8375.2294 4.4349.134 6.636 1.9747a10.415 10.415 0 0 1 2.8304 10.4966c-1.5251 3.421-6.4588 4.233-9.8407 4.0236q-1.7624-.1043-3.5175-.2943a43.4052 43.4052 0 0 0 4.2733 1.6592c3.742 1.1073 8.368.5939 11.2954-2.1483 1.9044-2.0408 2.4438-5.0706 2.4834-7.7779-2.0669-15.6215-15.936-11.2004-26.5997-7.8316ZM114.9122 310.6958c-5.7316-2.095-11.772.6161-17.2742 2.2777 5.2333.0192 10.8392-1.3602 15.8118.7772a8.0794 8.0794 0 0 1 4.1466 6.1285 9.7205 9.7205 0 0 1-2.6918 6.4385 13.7018 13.7018 0 0 1-4.7196 2.2818c2.7623.1134 5.7776-.2673 7.6807-2.491a9.3837 9.3837 0 0 0-2.9535-15.4127ZM157.8299 314.3274c-5.9418-5.3156-14.3376-3.929-21.6457-3.5358 4.8044 1.2383 9.9736 1.6825 14.4278 3.9621 4.813 2.7777 6.4057 7.222 4.872 11.8187-1.3247 5.1833-5.8274 10.1427-12.4195 9.6684a15.4174 15.4174 0 0 1-9.0212-4.8505c-.2931-.3614-.5624-.7418-.8204-1.128.0896.3206.181.6404.2889.9554 3.1646 8.4926 14.2275 12.446 21.6489 6.8147 7.5408-5.0465 9.9707-17.4303 2.6692-23.705Z"/>
  <path d="M166.0963 89.9007c-7.833-6.2614-18.5782-6.6456-28.1692-7.6113.33.044.7645.1018 1.1632.1546-10.8156-.9605-21.6683-1.4234-32.5201-1.825-11.2584-.11-22.696-.7585-33.8508.9793-11.5957 3.106-17.8892 12.7046-19.746 24.1038-2.1022 10.4124-2.1714 21.0445-2.4128 31.6218-.231 7.7474-.6212 15.4986-.5033 23.2506a53.324 53.324 0 0 0 .4146 5.8233c-.0372-.3131-.097-.8082-.1919-1.5714a11.6548 11.6548 0 0 0 .1967 1.9146 22.7997 22.7997 0 0 0 1.5858 6.4766c-.2419 3.4916-.936 7.0331-.2127 10.474 1.705 6.094 8.2087 6.3306 13.4262 5.301q5.3505-.6437 10.705-1.2527c9.5636-1.2108 19.2329-1.861 28.8228-.6509 12.8028 1.9085 25.321 5.3328 37.9559 8.0917 8.023 2.3103 14.5529-2.1326 18.2178-9.1519 5.3919-8.9129 6.1477-19.5189 7.6648-29.5935 1.9788-13.7104 2.5713-27.559 2.9698-41.3915.0587-8.5739 2.0737-19.0435-5.5158-25.1431ZM153.443 121.394a304.0176 304.0176 0 0 1-3.4781 42.6494c-.5033 4.1016-1.9323 10.7287-4.1559 14.2697-9.83-2.192-19.5998-4.6862-29.4953-6.5872a123.1968 123.1968 0 0 0-22.1887-2.404 133.59 133.59 0 0 0-20.3582 2.5573c3.7127-5.2752 6.1572-12.1106 7.5256-17.288 2.546-11.504 3.311-23.3464 4.1327-35.0776.0942-4.5786.765-9.2451-.0824-13.7765a7.0149 7.0149 0 0 0-6.1658-5.1837c3.092-.207 6.2006-.1987 9.296-.3095 7.9598-.2251 15.9232-.0893 23.8788.2156 16.1609.7411 34.6706.3886 41.2937 3.1912.1556 5.9083-.1344 11.834-.2025 17.7432Z" fill="#dee9ef"/>
</svg>
